<svg width="40" height="40" viewBox="0 0 40 40" fill="none" xmlns="http://www.w3.org/2000/svg">
<path d="M34.9999 18.3333C34.5579 18.3333 34.134 18.5089 33.8214 18.8215C33.5088 19.134 33.3332 19.558 33.3332 20V24.3166L22.8499 13.8167C22.695 13.6604 22.5106 13.5364 22.3075 13.4518C22.1044 13.3672 21.8866 13.3237 21.6666 13.3237C21.4465 13.3237 21.2287 13.3672 21.0256 13.4518C20.8225 13.5364 20.6382 13.6604 20.4832 13.8167L14.9999 19.3167L6.18324 10.4833C5.8694 10.1695 5.44374 9.99316 4.9999 9.99316C4.55607 9.99316 4.13041 10.1695 3.81657 10.4833C3.50273 10.7972 3.32642 11.2228 3.32642 11.6667C3.32642 12.1105 3.50273 12.5361 3.81657 12.85L13.8166 22.85C13.9715 23.0062 14.1558 23.1302 14.3589 23.2148C14.562 23.2994 14.7799 23.343 14.9999 23.343C15.2199 23.343 15.4378 23.2994 15.6409 23.2148C15.844 23.1302 16.0283 23.0062 16.1832 22.85L21.6666 17.35L30.9832 26.6666H26.6666C26.2245 26.6666 25.8006 26.8422 25.4881 27.1548C25.1755 27.4674 24.9999 27.8913 24.9999 28.3333C24.9999 28.7753 25.1755 29.1993 25.4881 29.5118C25.8006 29.8244 26.2245 30 26.6666 30H34.9999C35.2177 29.9973 35.4329 29.9521 35.6332 29.8666C36.0405 29.6975 36.3641 29.3739 36.5332 28.9666C36.6186 28.7663 36.6639 28.5511 36.6666 28.3333V20C36.6666 19.558 36.491 19.134 36.1784 18.8215C35.8659 18.5089 35.4419 18.3333 34.9999 18.3333Z" fill="#FF8AB2"/>
</svg>
