<svg width="14" height="14" viewBox="0 0 14 14" fill="none" xmlns="http://www.w3.org/2000/svg">
<path d="M6.17747 7.82247C6.41664 8.04997 6.41664 8.4233 6.17747 8.6508C5.94997 8.8783 5.57664 8.8783 5.34914 8.6508C4.80277 8.10362 4.4959 7.36197 4.4959 6.58872C4.4959 5.81546 4.80277 5.07382 5.34914 4.52664L7.41414 2.46164C7.96132 1.91527 8.70297 1.6084 9.47622 1.6084C10.2495 1.6084 10.9911 1.91527 11.5383 2.46164C12.0847 3.00882 12.3915 3.75047 12.3915 4.52372C12.3915 5.29697 12.0847 6.03862 11.5383 6.5858L10.6691 7.45497C10.675 6.97664 10.5991 6.4983 10.4358 6.0433L10.71 5.7633C10.8736 5.60162 11.0036 5.40905 11.0923 5.19676C11.181 4.98448 11.2266 4.7567 11.2266 4.52664C11.2266 4.29657 11.181 4.06879 11.0923 3.85651C11.0036 3.64422 10.8736 3.45165 10.71 3.28997C10.5483 3.1263 10.3557 2.99635 10.1434 2.90766C9.93115 2.81897 9.70337 2.7733 9.4733 2.7733C9.24324 2.7733 9.01546 2.81897 8.80317 2.90766C8.59089 2.99635 8.39832 3.1263 8.23664 3.28997L6.17747 5.34914C6.0138 5.51082 5.88385 5.70339 5.79516 5.91567C5.70647 6.12796 5.6608 6.35574 5.6608 6.5858C5.6608 6.81587 5.70647 7.04365 5.79516 7.25593C5.88385 7.46822 6.0138 7.66078 6.17747 7.82247ZM7.82247 5.34914C8.04997 5.12164 8.4233 5.12164 8.6508 5.34914C9.19716 5.89632 9.50404 6.63797 9.50404 7.41122C9.50404 8.18447 9.19716 8.92612 8.6508 9.4733L6.5858 11.5383C6.03862 12.0847 5.29697 12.3915 4.52372 12.3915C3.75047 12.3915 3.00882 12.0847 2.46164 11.5383C1.91527 10.9911 1.6084 10.2495 1.6084 9.47622C1.6084 8.70297 1.91527 7.96132 2.46164 7.41414L3.3308 6.54497C3.32497 7.0233 3.4008 7.50164 3.56414 7.96247L3.28997 8.23664C3.1263 8.39832 2.99635 8.59089 2.90766 8.80317C2.81897 9.01546 2.7733 9.24324 2.7733 9.4733C2.7733 9.70337 2.81897 9.93115 2.90766 10.1434C2.99635 10.3557 3.1263 10.5483 3.28997 10.71C3.45165 10.8736 3.64422 11.0036 3.85651 11.0923C4.06879 11.181 4.29657 11.2266 4.52664 11.2266C4.7567 11.2266 4.98448 11.181 5.19676 11.0923C5.40905 11.0036 5.60162 10.8736 5.7633 10.71L7.82247 8.6508C7.98614 8.48912 8.11609 8.29655 8.20478 8.08426C8.29347 7.87198 8.33914 7.6442 8.33914 7.41414C8.33914 7.18407 8.29347 6.95629 8.20478 6.74401C8.11609 6.53172 7.98614 6.33915 7.82247 6.17747C7.76581 6.12438 7.72065 6.06023 7.68978 5.989C7.65891 5.91776 7.64298 5.84094 7.64298 5.7633C7.64298 5.68566 7.65891 5.60885 7.68978 5.53761C7.72065 5.46637 7.76581 5.40222 7.82247 5.34914Z" fill="#FF518C"/>
</svg>
