<svg width="40" height="40" viewBox="0 0 40 40" fill="none" xmlns="http://www.w3.org/2000/svg">
<path d="M16.6668 11.6667C16.2248 11.6667 15.8009 11.8423 15.4883 12.1549C15.1758 12.4674 15.0002 12.8913 15.0002 13.3334V26.6667C15.0002 27.1087 15.1758 27.5327 15.4883 27.8452C15.8009 28.1578 16.2248 28.3334 16.6668 28.3334C17.1089 28.3334 17.5328 28.1578 17.8453 27.8452C18.1579 27.5327 18.3335 27.1087 18.3335 26.6667V13.3334C18.3335 12.8913 18.1579 12.4674 17.8453 12.1549C17.5328 11.8423 17.1089 11.6667 16.6668 11.6667ZM20.0002 3.33337C16.7038 3.33337 13.4815 4.31086 10.7407 6.14221C7.99985 7.97357 5.86364 10.5765 4.60218 13.622C3.34072 16.6674 3.01066 20.0185 3.65375 23.2515C4.29684 26.4846 5.88418 29.4543 8.21506 31.7852C10.5459 34.116 13.5156 35.7034 16.7487 36.3465C19.9817 36.9896 23.3328 36.6595 26.3782 35.398C29.4237 34.1366 32.0266 32.0004 33.858 29.2595C35.6894 26.5187 36.6668 23.2964 36.6668 20C36.6668 17.8113 36.2357 15.6441 35.3982 13.622C34.5606 11.5999 33.3329 9.76257 31.7853 8.21493C30.2376 6.66728 28.4003 5.43963 26.3782 4.60205C24.3561 3.76447 22.1889 3.33337 20.0002 3.33337ZM20.0002 33.3334C17.3631 33.3334 14.7852 32.5514 12.5926 31.0863C10.3999 29.6212 8.69095 27.5388 7.68178 25.1025C6.67261 22.6661 6.40856 19.9853 6.92303 17.3988C7.4375 14.8124 8.70738 12.4367 10.5721 10.572C12.4368 8.70725 14.8126 7.43737 17.399 6.9229C19.9854 6.40843 22.6663 6.67248 25.1026 7.68165C27.539 8.69082 29.6213 10.3998 31.0864 12.5924C32.5515 14.7851 33.3335 17.363 33.3335 20C33.3335 23.5363 31.9287 26.9276 29.4283 29.4281C26.9278 31.9286 23.5364 33.3334 20.0002 33.3334ZM23.3335 11.6667C22.8915 11.6667 22.4676 11.8423 22.155 12.1549C21.8424 12.4674 21.6668 12.8913 21.6668 13.3334V26.6667C21.6668 27.1087 21.8424 27.5327 22.155 27.8452C22.4676 28.1578 22.8915 28.3334 23.3335 28.3334C23.7755 28.3334 24.1995 28.1578 24.512 27.8452C24.8246 27.5327 25.0002 27.1087 25.0002 26.6667V13.3334C25.0002 12.8913 24.8246 12.4674 24.512 12.1549C24.1995 11.8423 23.7755 11.6667 23.3335 11.6667Z" fill="#FF8AB2"/>
</svg>
