<svg width="14" height="14" viewBox="0 0 14 14" fill="none" xmlns="http://www.w3.org/2000/svg">
<path d="M9.33317 9.91661V11.0833H1.1665V9.91661C1.1665 9.91661 1.1665 7.58327 5.24984 7.58327C9.33317 7.58327 9.33317 9.91661 9.33317 9.91661ZM7.2915 4.37494C7.2915 3.97114 7.17176 3.5764 6.94742 3.24065C6.72308 2.9049 6.40422 2.64322 6.03115 2.48869C5.65808 2.33416 5.24757 2.29373 4.85153 2.3725C4.45548 2.45128 4.09169 2.64573 3.80616 2.93126C3.52063 3.2168 3.32618 3.58059 3.2474 3.97663C3.16862 4.37268 3.20905 4.78319 3.36358 5.15625C3.51811 5.52932 3.7798 5.84818 4.11555 6.07252C4.4513 6.29687 4.84603 6.41661 5.24984 6.41661C5.79132 6.41661 6.31063 6.2015 6.69351 5.81862C7.0764 5.43573 7.2915 4.91642 7.2915 4.37494ZM9.29817 7.58327C9.65677 7.86079 9.9502 8.21353 10.1578 8.61665C10.3654 9.01978 10.4822 9.46351 10.4998 9.91661V11.0833H12.8332V9.91661C12.8332 9.91661 12.8332 7.79911 9.29817 7.58327ZM8.74984 2.33327C8.34838 2.33141 7.9558 2.45142 7.624 2.67744C7.97834 3.17254 8.16887 3.76611 8.16887 4.37494C8.16887 4.98377 7.97834 5.57734 7.624 6.07244C7.9558 6.29846 8.34838 6.41847 8.74984 6.41661C9.29132 6.41661 9.81063 6.2015 10.1935 5.81862C10.5764 5.43573 10.7915 4.91642 10.7915 4.37494C10.7915 3.83346 10.5764 3.31415 10.1935 2.93126C9.81063 2.54838 9.29132 2.33327 8.74984 2.33327Z" fill="#FF518C"/>
</svg>
