<svg width="229" height="180" viewBox="0 0 229 180" fill="none" xmlns="http://www.w3.org/2000/svg">
<g clip-path="url(#clip0_351_314)">
<path d="M229 0H0V180H229V0Z" fill="#00102A"/>
<path d="M99.1328 80.9844C99.1328 80.752 99.0964 80.5469 99.0234 80.3691C98.9551 80.1868 98.832 80.0228 98.6543 79.877C98.4811 79.7311 98.2396 79.5921 97.9297 79.46C97.6243 79.3278 97.237 79.1934 96.7676 79.0566C96.2754 78.9108 95.8311 78.749 95.4346 78.5713C95.0381 78.389 94.6986 78.1816 94.416 77.9492C94.1335 77.7168 93.917 77.4502 93.7666 77.1494C93.6162 76.8486 93.541 76.5046 93.541 76.1172C93.541 75.7298 93.6208 75.3721 93.7803 75.0439C93.9398 74.7158 94.1676 74.431 94.4639 74.1895C94.7646 73.9434 95.1224 73.752 95.5371 73.6152C95.9518 73.4785 96.4144 73.4102 96.9248 73.4102C97.6722 73.4102 98.3057 73.5537 98.8252 73.8408C99.3493 74.1234 99.748 74.4948 100.021 74.9551C100.295 75.4108 100.432 75.8984 100.432 76.418H99.1191C99.1191 76.0443 99.0394 75.7139 98.8799 75.4268C98.7204 75.1351 98.4788 74.9072 98.1553 74.7432C97.8317 74.5745 97.4215 74.4902 96.9248 74.4902C96.4554 74.4902 96.068 74.5609 95.7627 74.7021C95.4574 74.8434 95.2295 75.0348 95.0791 75.2764C94.9333 75.5179 94.8604 75.7936 94.8604 76.1035C94.8604 76.3132 94.9036 76.5046 94.9902 76.6777C95.0814 76.8464 95.2204 77.0036 95.4072 77.1494C95.5986 77.2952 95.8402 77.4297 96.1318 77.5527C96.4281 77.6758 96.7812 77.7943 97.1914 77.9082C97.7565 78.0677 98.2441 78.2454 98.6543 78.4414C99.0645 78.6374 99.4017 78.8584 99.666 79.1045C99.9349 79.346 100.133 79.6217 100.261 79.9316C100.393 80.237 100.459 80.5833 100.459 80.9707C100.459 81.3763 100.377 81.7432 100.213 82.0713C100.049 82.3994 99.8141 82.6797 99.5088 82.9121C99.2035 83.1445 98.8366 83.3245 98.4082 83.4521C97.9844 83.5752 97.5104 83.6367 96.9863 83.6367C96.526 83.6367 96.0726 83.5729 95.626 83.4453C95.1839 83.3177 94.7806 83.1263 94.416 82.8711C94.056 82.6159 93.7666 82.3014 93.5479 81.9277C93.3337 81.5495 93.2266 81.112 93.2266 80.6152H94.5391C94.5391 80.957 94.6051 81.251 94.7373 81.4971C94.8695 81.7386 95.0495 81.9391 95.2773 82.0986C95.5098 82.2581 95.7718 82.3766 96.0635 82.4541C96.3597 82.527 96.6673 82.5635 96.9863 82.5635C97.4466 82.5635 97.8363 82.4997 98.1553 82.3721C98.4743 82.2445 98.7158 82.0622 98.8799 81.8252C99.0485 81.5882 99.1328 81.3079 99.1328 80.9844ZM108.149 80.335H109.462C109.394 80.9639 109.214 81.5267 108.922 82.0234C108.63 82.5202 108.218 82.9144 107.685 83.2061C107.151 83.4932 106.486 83.6367 105.688 83.6367C105.105 83.6367 104.574 83.5273 104.096 83.3086C103.622 83.0898 103.214 82.7799 102.872 82.3789C102.53 81.9733 102.266 81.488 102.079 80.9229C101.897 80.3532 101.806 79.7197 101.806 79.0225V78.0312C101.806 77.334 101.897 76.7028 102.079 76.1377C102.266 75.568 102.533 75.0804 102.879 74.6748C103.23 74.2692 103.651 73.957 104.144 73.7383C104.636 73.5195 105.189 73.4102 105.805 73.4102C106.557 73.4102 107.192 73.5514 107.712 73.834C108.231 74.1165 108.635 74.5085 108.922 75.0098C109.214 75.5065 109.394 76.083 109.462 76.7393H108.149C108.086 76.2744 107.967 75.8757 107.794 75.543C107.621 75.2057 107.375 74.946 107.056 74.7637C106.737 74.5814 106.32 74.4902 105.805 74.4902C105.363 74.4902 104.973 74.5745 104.636 74.7432C104.303 74.9118 104.023 75.151 103.795 75.4609C103.572 75.7708 103.403 76.1423 103.289 76.5752C103.175 77.0081 103.118 77.4889 103.118 78.0176V79.0225C103.118 79.5101 103.168 79.9681 103.269 80.3965C103.373 80.8249 103.531 81.2008 103.74 81.5244C103.95 81.848 104.216 82.1032 104.54 82.29C104.864 82.4723 105.246 82.5635 105.688 82.5635C106.249 82.5635 106.696 82.4746 107.028 82.2969C107.361 82.1191 107.612 81.8639 107.78 81.5312C107.953 81.1986 108.076 80.7998 108.149 80.335ZM118.923 78.209V78.8379C118.923 79.5853 118.829 80.2552 118.643 80.8477C118.456 81.4401 118.187 81.9437 117.836 82.3584C117.485 82.7731 117.063 83.0898 116.571 83.3086C116.084 83.5273 115.537 83.6367 114.931 83.6367C114.343 83.6367 113.803 83.5273 113.311 83.3086C112.823 83.0898 112.399 82.7731 112.039 82.3584C111.684 81.9437 111.408 81.4401 111.212 80.8477C111.016 80.2552 110.918 79.5853 110.918 78.8379V78.209C110.918 77.4616 111.014 76.7939 111.205 76.2061C111.401 75.6136 111.677 75.11 112.032 74.6953C112.388 74.276 112.809 73.957 113.297 73.7383C113.789 73.5195 114.329 73.4102 114.917 73.4102C115.523 73.4102 116.07 73.5195 116.558 73.7383C117.05 73.957 117.471 74.276 117.822 74.6953C118.178 75.11 118.449 75.6136 118.636 76.2061C118.827 76.7939 118.923 77.4616 118.923 78.209ZM117.617 78.8379V78.1953C117.617 77.6029 117.556 77.0788 117.433 76.623C117.314 76.1673 117.139 75.7845 116.906 75.4746C116.674 75.1647 116.389 74.93 116.052 74.7705C115.719 74.611 115.341 74.5312 114.917 74.5312C114.507 74.5312 114.135 74.611 113.803 74.7705C113.475 74.93 113.192 75.1647 112.955 75.4746C112.723 75.7845 112.543 76.1673 112.415 76.623C112.287 77.0788 112.224 77.6029 112.224 78.1953V78.8379C112.224 79.4349 112.287 79.9635 112.415 80.4238C112.543 80.8796 112.725 81.2646 112.962 81.5791C113.203 81.889 113.488 82.1237 113.816 82.2832C114.149 82.4427 114.521 82.5225 114.931 82.5225C115.359 82.5225 115.74 82.4427 116.072 82.2832C116.405 82.1237 116.685 81.889 116.913 81.5791C117.146 81.2646 117.321 80.8796 117.439 80.4238C117.558 79.9635 117.617 79.4349 117.617 78.8379ZM120.898 73.5469H124.193C124.941 73.5469 125.572 73.6608 126.087 73.8887C126.606 74.1165 127.001 74.4538 127.27 74.9004C127.543 75.3424 127.68 75.887 127.68 76.5342C127.68 76.9899 127.586 77.4069 127.399 77.7852C127.217 78.1589 126.953 78.4779 126.606 78.7422C126.265 79.002 125.854 79.1956 125.376 79.3232L125.007 79.4668H121.91L121.896 78.3936H124.234C124.708 78.3936 125.103 78.3115 125.417 78.1475C125.731 77.9788 125.968 77.7533 126.128 77.4707C126.287 77.1882 126.367 76.876 126.367 76.5342C126.367 76.1514 126.292 75.8164 126.142 75.5293C125.991 75.2422 125.754 75.0212 125.431 74.8662C125.112 74.7067 124.699 74.627 124.193 74.627H122.218V83.5H120.898V73.5469ZM126.716 83.5L124.296 78.9883L125.67 78.9814L128.124 83.418V83.5H126.716ZM135.849 82.4268V83.5H130.578V82.4268H135.849ZM130.845 73.5469V83.5H129.525V73.5469H130.845ZM135.151 77.8262V78.8994H130.578V77.8262H135.151ZM135.78 73.5469V74.627H130.578V73.5469H135.78Z" fill="white"/>
<path d="M99.2461 101.525L97 100.988L97.8105 93.7812H105.799V96.0566H100.125L99.7734 99.2109C99.9622 99.1003 100.249 98.9831 100.633 98.8594C101.017 98.7292 101.447 98.6641 101.922 98.6641C102.612 98.6641 103.224 98.7715 103.758 98.9863C104.292 99.2012 104.744 99.5137 105.115 99.9238C105.493 100.334 105.779 100.835 105.975 101.428C106.17 102.02 106.268 102.691 106.268 103.439C106.268 104.071 106.17 104.673 105.975 105.246C105.779 105.812 105.483 106.32 105.086 106.77C104.689 107.212 104.191 107.561 103.592 107.814C102.993 108.068 102.283 108.195 101.463 108.195C100.851 108.195 100.258 108.104 99.6855 107.922C99.1191 107.74 98.6081 107.469 98.1523 107.111C97.7031 106.753 97.3418 106.32 97.0684 105.812C96.8014 105.298 96.6615 104.712 96.6484 104.055H99.4414C99.4805 104.458 99.5846 104.807 99.7539 105.1C99.9297 105.386 100.161 105.607 100.447 105.764C100.734 105.92 101.069 105.998 101.453 105.998C101.811 105.998 102.117 105.93 102.371 105.793C102.625 105.656 102.83 105.467 102.986 105.227C103.143 104.979 103.257 104.693 103.328 104.367C103.406 104.035 103.445 103.677 103.445 103.293C103.445 102.909 103.4 102.561 103.309 102.248C103.217 101.936 103.077 101.665 102.889 101.438C102.7 101.21 102.459 101.034 102.166 100.91C101.88 100.786 101.544 100.725 101.16 100.725C100.639 100.725 100.236 100.806 99.9492 100.969C99.6693 101.132 99.4349 101.317 99.2461 101.525ZM115.34 93.6348H115.75V95.8809H115.584C114.842 95.8809 114.181 95.9915 113.602 96.2129C113.022 96.4342 112.531 96.75 112.127 97.1602C111.73 97.5638 111.424 98.0521 111.209 98.625C111.001 99.1979 110.896 99.8392 110.896 100.549V102.912C110.896 103.42 110.945 103.869 111.043 104.26C111.147 104.644 111.294 104.966 111.482 105.227C111.678 105.48 111.906 105.673 112.166 105.803C112.426 105.926 112.719 105.988 113.045 105.988C113.351 105.988 113.628 105.923 113.875 105.793C114.129 105.663 114.344 105.48 114.52 105.246C114.702 105.005 114.839 104.725 114.93 104.406C115.027 104.081 115.076 103.726 115.076 103.342C115.076 102.958 115.027 102.603 114.93 102.277C114.839 101.952 114.702 101.672 114.52 101.438C114.337 101.197 114.116 101.011 113.855 100.881C113.595 100.751 113.302 100.686 112.977 100.686C112.534 100.686 112.143 100.79 111.805 100.998C111.473 101.2 111.212 101.46 111.023 101.779C110.835 102.098 110.734 102.434 110.721 102.785L109.871 102.238C109.891 101.737 109.995 101.262 110.184 100.812C110.379 100.363 110.646 99.9661 110.984 99.6211C111.329 99.2695 111.743 98.9961 112.225 98.8008C112.706 98.599 113.25 98.498 113.855 98.498C114.52 98.498 115.102 98.625 115.604 98.8789C116.111 99.1328 116.535 99.4811 116.873 99.9238C117.212 100.367 117.465 100.878 117.635 101.457C117.804 102.036 117.889 102.655 117.889 103.312C117.889 104.003 117.775 104.644 117.547 105.236C117.326 105.829 117.003 106.346 116.58 106.789C116.163 107.232 115.662 107.577 115.076 107.824C114.49 108.072 113.833 108.195 113.104 108.195C112.348 108.195 111.661 108.059 111.043 107.785C110.431 107.505 109.904 107.115 109.461 106.613C109.018 106.112 108.676 105.516 108.436 104.826C108.201 104.136 108.084 103.381 108.084 102.561V101.467C108.084 100.321 108.25 99.2728 108.582 98.3223C108.921 97.3652 109.406 96.5384 110.037 95.8418C110.669 95.1387 111.43 94.5951 112.322 94.2109C113.214 93.8268 114.22 93.6348 115.34 93.6348ZM119.529 97.2676V96.5156C119.529 95.9753 119.646 95.4837 119.881 95.041C120.115 94.5983 120.46 94.2435 120.916 93.9766C121.372 93.7096 121.932 93.5762 122.596 93.5762C123.279 93.5762 123.849 93.7096 124.305 93.9766C124.767 94.2435 125.112 94.5983 125.34 95.041C125.574 95.4837 125.691 95.9753 125.691 96.5156V97.2676C125.691 97.7949 125.574 98.2799 125.34 98.7227C125.112 99.1654 124.77 99.5202 124.314 99.7871C123.859 100.054 123.292 100.188 122.615 100.188C121.945 100.188 121.378 100.054 120.916 99.7871C120.46 99.5202 120.115 99.1654 119.881 98.7227C119.646 98.2799 119.529 97.7949 119.529 97.2676ZM121.395 96.5156V97.2676C121.395 97.4954 121.437 97.7135 121.521 97.9219C121.613 98.1237 121.749 98.2897 121.932 98.4199C122.12 98.5436 122.348 98.6055 122.615 98.6055C122.895 98.6055 123.123 98.5436 123.299 98.4199C123.475 98.2897 123.605 98.1237 123.689 97.9219C123.774 97.7135 123.816 97.4954 123.816 97.2676V96.5156C123.816 96.2747 123.771 96.0534 123.68 95.8516C123.595 95.6432 123.462 95.4772 123.279 95.3535C123.104 95.2233 122.876 95.1582 122.596 95.1582C122.335 95.1582 122.114 95.2233 121.932 95.3535C121.749 95.4772 121.613 95.6432 121.521 95.8516C121.437 96.0534 121.395 96.2747 121.395 96.5156ZM126.326 105.266V104.514C126.326 103.98 126.443 103.492 126.678 103.049C126.919 102.606 127.267 102.251 127.723 101.984C128.185 101.717 128.751 101.584 129.422 101.584C130.099 101.584 130.665 101.717 131.121 101.984C131.577 102.251 131.922 102.606 132.156 103.049C132.391 103.492 132.508 103.98 132.508 104.514V105.266C132.508 105.799 132.391 106.288 132.156 106.73C131.928 107.173 131.587 107.528 131.131 107.795C130.675 108.062 130.112 108.195 129.441 108.195C128.764 108.195 128.195 108.062 127.732 107.795C127.27 107.528 126.919 107.173 126.678 106.73C126.443 106.288 126.326 105.799 126.326 105.266ZM128.201 104.514V105.266C128.201 105.5 128.253 105.721 128.357 105.93C128.462 106.138 128.605 106.304 128.787 106.428C128.976 106.551 129.194 106.613 129.441 106.613C129.754 106.613 129.998 106.551 130.174 106.428C130.35 106.304 130.47 106.138 130.535 105.93C130.607 105.721 130.643 105.5 130.643 105.266V104.514C130.643 104.279 130.597 104.061 130.506 103.859C130.415 103.651 130.278 103.485 130.096 103.361C129.92 103.231 129.695 103.166 129.422 103.166C129.148 103.166 128.921 103.231 128.738 103.361C128.562 103.485 128.429 103.651 128.338 103.859C128.247 104.061 128.201 104.279 128.201 104.514ZM130.115 95.8125L123.172 106.926L121.805 106.203L128.748 95.0898L130.115 95.8125Z" fill="white"/>
<path d="M47 112.5C47 94.5979 54.1116 77.429 66.7703 64.7703C79.429 52.1116 96.5979 45 114.5 45C132.402 45 149.571 52.1116 162.23 64.7703C174.888 77.429 182 94.5979 182 112.5H168.5C168.5 98.1783 162.811 84.4432 152.684 74.3162C142.557 64.1893 128.822 58.5 114.5 58.5C100.178 58.5 86.4432 64.1893 76.3162 74.3162C66.1893 84.4432 60.5 98.1783 60.5 112.5H47Z" fill="#5473A2" stroke="#5473A2" stroke-width="10" stroke-linecap="round" stroke-linejoin="round"/>
<mask id="mask0_351_314" style="mask-type:luminance" maskUnits="userSpaceOnUse" x="25" y="15" width="179" height="150">
<path d="M203.5 15.5V164.5H25.5V15.5H203.5Z" fill="white" stroke="white"/>
</mask>
<g mask="url(#mask0_351_314)">
<path d="M47 112.5C47 102.564 49.1936 92.7503 53.4242 83.7599C57.6548 74.7695 63.818 66.8239 71.4739 60.4904C79.1298 54.1569 88.0895 49.5916 97.7134 47.1206C107.337 44.6496 117.388 44.3338 127.148 46.1956L126.516 49.5108C117.244 47.7421 107.695 48.0422 98.5528 50.3896C89.41 52.7371 80.8983 57.074 73.6252 63.0908C66.3521 69.1077 60.497 76.656 56.478 85.1969C52.4589 93.7378 50.375 103.061 50.375 112.5H47Z" fill="#FA4B42" stroke="url(#paint0_linear_351_314)" stroke-width="10" stroke-linecap="round" stroke-linejoin="round"/>
</g>
<path d="M54.1377 128.93V130.448C54.1377 131.264 54.0648 131.952 53.9189 132.512C53.7731 133.073 53.5635 133.524 53.29 133.866C53.0166 134.208 52.6862 134.456 52.2988 134.611C51.916 134.761 51.4831 134.837 51 134.837C50.6172 134.837 50.264 134.789 49.9404 134.693C49.6169 134.597 49.3252 134.445 49.0654 134.235C48.8102 134.021 48.5915 133.743 48.4092 133.401C48.2269 133.059 48.0879 132.645 47.9922 132.157C47.8965 131.669 47.8486 131.1 47.8486 130.448V128.93C47.8486 128.115 47.9215 127.431 48.0674 126.88C48.2178 126.328 48.4297 125.886 48.7031 125.553C48.9766 125.216 49.3047 124.975 49.6875 124.829C50.0749 124.683 50.5078 124.61 50.9863 124.61C51.3737 124.61 51.7292 124.658 52.0527 124.754C52.3809 124.845 52.6725 124.993 52.9277 125.198C53.1829 125.399 53.3994 125.667 53.5771 126.005C53.7594 126.337 53.8984 126.745 53.9941 127.228C54.0898 127.711 54.1377 128.279 54.1377 128.93ZM52.8662 130.653V128.719C52.8662 128.272 52.8389 127.88 52.7842 127.543C52.734 127.201 52.6589 126.909 52.5586 126.668C52.4583 126.426 52.3307 126.23 52.1758 126.08C52.0254 125.929 51.8499 125.82 51.6494 125.752C51.4535 125.679 51.2324 125.642 50.9863 125.642C50.6855 125.642 50.4189 125.699 50.1865 125.813C49.9541 125.923 49.7581 126.098 49.5986 126.34C49.4437 126.581 49.3252 126.898 49.2432 127.29C49.1611 127.682 49.1201 128.158 49.1201 128.719V130.653C49.1201 131.1 49.1452 131.494 49.1953 131.836C49.25 132.177 49.3298 132.474 49.4346 132.724C49.5394 132.97 49.667 133.173 49.8174 133.333C49.9678 133.492 50.141 133.611 50.3369 133.688C50.5374 133.761 50.7585 133.798 51 133.798C51.3099 133.798 51.5811 133.738 51.8135 133.62C52.0459 133.501 52.2396 133.317 52.3945 133.066C52.554 132.811 52.6725 132.485 52.75 132.089C52.8275 131.688 52.8662 131.209 52.8662 130.653Z" fill="white"/>
<path d="M164.671 124.692V134.7H163.406V126.271L160.856 127.201V126.059L164.473 124.692H164.671ZM174.638 128.93V130.448C174.638 131.264 174.565 131.952 174.419 132.512C174.273 133.073 174.063 133.524 173.79 133.866C173.517 134.208 173.186 134.456 172.799 134.611C172.416 134.761 171.983 134.837 171.5 134.837C171.117 134.837 170.764 134.789 170.44 134.693C170.117 134.597 169.825 134.445 169.565 134.235C169.31 134.021 169.091 133.743 168.909 133.401C168.727 133.059 168.588 132.645 168.492 132.157C168.396 131.669 168.349 131.1 168.349 130.448V128.93C168.349 128.115 168.422 127.431 168.567 126.88C168.718 126.328 168.93 125.886 169.203 125.553C169.477 125.216 169.805 124.975 170.188 124.829C170.575 124.683 171.008 124.61 171.486 124.61C171.874 124.61 172.229 124.658 172.553 124.754C172.881 124.845 173.173 124.993 173.428 125.198C173.683 125.399 173.899 125.667 174.077 126.005C174.259 126.337 174.398 126.745 174.494 127.228C174.59 127.711 174.638 128.279 174.638 128.93ZM173.366 130.653V128.719C173.366 128.272 173.339 127.88 173.284 127.543C173.234 127.201 173.159 126.909 173.059 126.668C172.958 126.426 172.831 126.23 172.676 126.08C172.525 125.929 172.35 125.82 172.149 125.752C171.953 125.679 171.732 125.642 171.486 125.642C171.186 125.642 170.919 125.699 170.687 125.813C170.454 125.923 170.258 126.098 170.099 126.34C169.944 126.581 169.825 126.898 169.743 127.29C169.661 127.682 169.62 128.158 169.62 128.719V130.653C169.62 131.1 169.645 131.494 169.695 131.836C169.75 132.177 169.83 132.474 169.935 132.724C170.039 132.97 170.167 133.173 170.317 133.333C170.468 133.492 170.641 133.611 170.837 133.688C171.037 133.761 171.258 133.798 171.5 133.798C171.81 133.798 172.081 133.738 172.313 133.62C172.546 133.501 172.74 133.317 172.895 133.066C173.054 132.811 173.173 132.485 173.25 132.089C173.327 131.688 173.366 131.209 173.366 130.653ZM182.513 128.93V130.448C182.513 131.264 182.44 131.952 182.294 132.512C182.148 133.073 181.938 133.524 181.665 133.866C181.392 134.208 181.061 134.456 180.674 134.611C180.291 134.761 179.858 134.837 179.375 134.837C178.992 134.837 178.639 134.789 178.315 134.693C177.992 134.597 177.7 134.445 177.44 134.235C177.185 134.021 176.966 133.743 176.784 133.401C176.602 133.059 176.463 132.645 176.367 132.157C176.271 131.669 176.224 131.1 176.224 130.448V128.93C176.224 128.115 176.297 127.431 176.442 126.88C176.593 126.328 176.805 125.886 177.078 125.553C177.352 125.216 177.68 124.975 178.062 124.829C178.45 124.683 178.883 124.61 179.361 124.61C179.749 124.61 180.104 124.658 180.428 124.754C180.756 124.845 181.048 124.993 181.303 125.198C181.558 125.399 181.774 125.667 181.952 126.005C182.134 126.337 182.273 126.745 182.369 127.228C182.465 127.711 182.513 128.279 182.513 128.93ZM181.241 130.653V128.719C181.241 128.272 181.214 127.88 181.159 127.543C181.109 127.201 181.034 126.909 180.934 126.668C180.833 126.426 180.706 126.23 180.551 126.08C180.4 125.929 180.225 125.82 180.024 125.752C179.828 125.679 179.607 125.642 179.361 125.642C179.061 125.642 178.794 125.699 178.562 125.813C178.329 125.923 178.133 126.098 177.974 126.34C177.819 126.581 177.7 126.898 177.618 127.29C177.536 127.682 177.495 128.158 177.495 128.719V130.653C177.495 131.1 177.52 131.494 177.57 131.836C177.625 132.177 177.705 132.474 177.81 132.724C177.914 132.97 178.042 133.173 178.192 133.333C178.343 133.492 178.516 133.611 178.712 133.688C178.912 133.761 179.133 133.798 179.375 133.798C179.685 133.798 179.956 133.738 180.188 133.62C180.421 133.501 180.615 133.317 180.77 133.066C180.929 132.811 181.048 132.485 181.125 132.089C181.202 131.688 181.241 131.209 181.241 130.653Z" fill="white"/>
<path d="M89 133C89 128.582 92.5817 125 97 125H133C137.418 125 141 128.582 141 133C141 137.418 137.418 141 133 141H97C92.5817 141 89 137.418 89 133Z" fill="#F6FA44"/>
<path d="M96.2268 135.5V131.12H97.0068L98.3028 134.042H98.3988L99.6888 131.12H100.475V135.5H99.8868V131.762L99.9288 131.774L98.6868 134.594H97.9668L96.7188 131.774L96.7668 131.762V135.5H96.2268ZM103.024 135.608C102.744 135.608 102.502 135.56 102.298 135.464C102.094 135.368 101.928 135.242 101.8 135.086C101.672 134.926 101.576 134.748 101.512 134.552C101.452 134.356 101.422 134.156 101.422 133.952V133.844C101.422 133.636 101.452 133.434 101.512 133.238C101.576 133.042 101.672 132.866 101.8 132.71C101.928 132.55 102.09 132.424 102.286 132.332C102.486 132.236 102.72 132.188 102.988 132.188C103.336 132.188 103.622 132.264 103.846 132.416C104.074 132.564 104.242 132.756 104.35 132.992C104.462 133.228 104.518 133.48 104.518 133.748V134.006H101.674V133.574H104.098L103.966 133.808C103.966 133.58 103.93 133.384 103.858 133.22C103.786 133.052 103.678 132.922 103.534 132.83C103.39 132.738 103.208 132.692 102.988 132.692C102.76 132.692 102.57 132.744 102.418 132.848C102.27 132.952 102.158 133.094 102.082 133.274C102.01 133.454 101.974 133.662 101.974 133.898C101.974 134.126 102.01 134.332 102.082 134.516C102.158 134.696 102.274 134.84 102.43 134.948C102.586 135.052 102.784 135.104 103.024 135.104C103.276 135.104 103.48 135.048 103.636 134.936C103.796 134.824 103.892 134.694 103.924 134.546H104.464C104.42 134.766 104.332 134.956 104.2 135.116C104.068 135.276 103.902 135.398 103.702 135.482C103.502 135.566 103.276 135.608 103.024 135.608ZM106.674 135.608C106.446 135.608 106.236 135.566 106.044 135.482C105.852 135.398 105.684 135.28 105.54 135.128C105.4 134.976 105.29 134.8 105.21 134.6C105.134 134.4 105.096 134.184 105.096 133.952V133.844C105.096 133.616 105.134 133.402 105.21 133.202C105.286 133.002 105.392 132.826 105.528 132.674C105.668 132.522 105.832 132.404 106.02 132.32C106.212 132.232 106.424 132.188 106.656 132.188C106.9 132.188 107.122 132.24 107.322 132.344C107.522 132.444 107.686 132.602 107.814 132.818C107.942 133.034 108.014 133.314 108.03 133.658L107.79 133.274V131.12H108.366V135.5H107.91V134.078H108.078C108.062 134.442 107.986 134.738 107.85 134.966C107.714 135.19 107.542 135.354 107.334 135.458C107.13 135.558 106.91 135.608 106.674 135.608ZM106.752 135.104C106.948 135.104 107.126 135.06 107.286 134.972C107.446 134.884 107.574 134.758 107.67 134.594C107.766 134.426 107.814 134.23 107.814 134.006V133.73C107.814 133.51 107.764 133.324 107.664 133.172C107.568 133.016 107.438 132.898 107.274 132.818C107.114 132.734 106.938 132.692 106.746 132.692C106.534 132.692 106.346 132.742 106.182 132.842C106.022 132.942 105.896 133.082 105.804 133.262C105.716 133.442 105.672 133.654 105.672 133.898C105.672 134.142 105.718 134.356 105.81 134.54C105.902 134.72 106.03 134.86 106.194 134.96C106.358 135.056 106.544 135.104 106.752 135.104ZM109.629 135.5V132.296H110.205V135.5H109.629ZM109.137 132.752V132.296H110.205V132.752H109.137ZM109.791 131.78C109.663 131.78 109.567 131.746 109.503 131.678C109.443 131.61 109.413 131.524 109.413 131.42C109.413 131.316 109.443 131.23 109.503 131.162C109.567 131.094 109.663 131.06 109.791 131.06C109.919 131.06 110.013 131.094 110.073 131.162C110.137 131.23 110.169 131.316 110.169 131.42C110.169 131.524 110.137 131.61 110.073 131.678C110.013 131.746 109.919 131.78 109.791 131.78ZM112.429 135.596C112.049 135.596 111.757 135.472 111.553 135.224C111.349 134.976 111.247 134.618 111.247 134.15V132.29H111.823V134.264C111.823 134.516 111.891 134.714 112.027 134.858C112.163 134.998 112.347 135.068 112.579 135.068C112.819 135.068 113.015 134.992 113.167 134.84C113.319 134.684 113.395 134.472 113.395 134.204V132.29H113.971V135.5H113.515V134.126H113.587C113.587 134.442 113.545 134.71 113.461 134.93C113.377 135.146 113.251 135.312 113.083 135.428C112.919 135.54 112.709 135.596 112.453 135.596H112.429ZM115.086 135.5V132.296H115.542V133.67H115.47C115.47 133.358 115.51 133.094 115.59 132.878C115.674 132.658 115.798 132.49 115.962 132.374C116.126 132.258 116.334 132.2 116.586 132.2H116.61C116.862 132.2 117.07 132.258 117.234 132.374C117.402 132.49 117.526 132.658 117.606 132.878C117.686 133.094 117.726 133.358 117.726 133.67H117.558C117.558 133.358 117.6 133.094 117.684 132.878C117.768 132.658 117.892 132.49 118.056 132.374C118.224 132.258 118.434 132.2 118.686 132.2H118.71C118.962 132.2 119.172 132.258 119.34 132.374C119.508 132.49 119.632 132.658 119.712 132.878C119.796 133.094 119.838 133.358 119.838 133.67V135.5H119.262V133.544C119.262 133.284 119.198 133.084 119.07 132.944C118.942 132.8 118.764 132.728 118.536 132.728C118.3 132.728 118.11 132.804 117.966 132.956C117.822 133.104 117.75 133.312 117.75 133.58V135.5H117.174V133.544C117.174 133.284 117.11 133.084 116.982 132.944C116.854 132.8 116.676 132.728 116.448 132.728C116.212 132.728 116.022 132.804 115.878 132.956C115.734 133.104 115.662 133.312 115.662 133.58V135.5H115.086ZM122.342 135.5V131.096H122.93V135.5H122.342ZM125.048 135.5L123.596 133.55H124.286L125.762 135.5H125.048ZM122.708 133.916V133.394H123.884C124.068 133.394 124.226 133.356 124.358 133.28C124.49 133.204 124.592 133.1 124.664 132.968C124.736 132.832 124.772 132.678 124.772 132.506C124.772 132.334 124.736 132.182 124.664 132.05C124.592 131.914 124.49 131.808 124.358 131.732C124.226 131.652 124.068 131.612 123.884 131.612H122.708V131.096H123.776C124.096 131.096 124.376 131.144 124.616 131.24C124.856 131.336 125.042 131.484 125.174 131.684C125.306 131.884 125.372 132.142 125.372 132.458V132.554C125.372 132.87 125.304 133.128 125.168 133.328C125.036 133.528 124.85 133.676 124.61 133.772C124.374 133.868 124.096 133.916 123.776 133.916H122.708ZM126.615 135.5V132.296H127.191V135.5H126.615ZM126.123 132.752V132.296H127.191V132.752H126.123ZM126.777 131.78C126.649 131.78 126.553 131.746 126.489 131.678C126.429 131.61 126.399 131.524 126.399 131.42C126.399 131.316 126.429 131.23 126.489 131.162C126.553 131.094 126.649 131.06 126.777 131.06C126.905 131.06 126.999 131.094 127.059 131.162C127.123 131.23 127.155 131.316 127.155 131.42C127.155 131.524 127.123 131.61 127.059 131.678C126.999 131.746 126.905 131.78 126.777 131.78ZM129.355 135.596C128.935 135.596 128.609 135.506 128.377 135.326C128.149 135.146 128.031 134.9 128.023 134.588H128.563C128.571 134.712 128.633 134.83 128.749 134.942C128.869 135.05 129.071 135.104 129.355 135.104C129.611 135.104 129.807 135.054 129.943 134.954C130.079 134.85 130.147 134.724 130.147 134.576C130.147 134.444 130.097 134.342 129.997 134.27C129.897 134.194 129.735 134.144 129.511 134.12L129.163 134.084C128.859 134.052 128.611 133.962 128.419 133.814C128.227 133.662 128.131 133.45 128.131 133.178C128.131 132.974 128.183 132.8 128.287 132.656C128.391 132.508 128.535 132.396 128.719 132.32C128.903 132.24 129.115 132.2 129.355 132.2C129.715 132.2 130.007 132.28 130.231 132.44C130.455 132.6 130.571 132.838 130.579 133.154H130.039C130.035 133.026 129.975 132.918 129.859 132.83C129.747 132.738 129.579 132.692 129.355 132.692C129.131 132.692 128.961 132.738 128.845 132.83C128.729 132.922 128.671 133.038 128.671 133.178C128.671 133.298 128.711 133.394 128.791 133.466C128.875 133.538 129.011 133.584 129.199 133.604L129.547 133.64C129.891 133.676 130.167 133.772 130.375 133.928C130.583 134.08 130.687 134.296 130.687 134.576C130.687 134.776 130.629 134.954 130.513 135.11C130.401 135.262 130.245 135.382 130.045 135.47C129.845 135.554 129.615 135.596 129.355 135.596ZM133.73 135.5L132.524 134.006H131.996L133.466 132.296H134.072L132.74 133.838L132.782 133.532L134.396 135.5H133.73ZM131.522 135.5V131.12H132.098V135.5H131.522Z" fill="#00102A"/>
</g>
<defs>
<linearGradient id="paint0_linear_351_314" x1="87.0741" y1="45" x2="87.0741" y2="112.5" gradientUnits="userSpaceOnUse">
<stop stop-color="#F6FF45"/>
<stop offset="1" stop-color="#FF0000"/>
</linearGradient>
<clipPath id="clip0_351_314">
<rect width="229" height="180" fill="white"/>
</clipPath>
</defs>
</svg>
