<svg width="40" height="40" viewBox="0 0 40 40" fill="none" xmlns="http://www.w3.org/2000/svg">
<path d="M28.4316 25.8683C29.2112 25.3359 30.1257 25.0351 31.0692 25.0007C32.0126 24.9663 32.9466 25.1998 33.7629 25.674C34.5793 26.1483 35.2447 26.844 35.6821 27.6806C36.1196 28.5173 36.3112 29.4607 36.2349 30.4017C34.2352 31.1006 32.1112 31.3725 29.9999 31.2C29.9934 29.311 29.4494 27.4613 28.4316 25.87C27.5281 24.453 26.2818 23.2867 24.8079 22.4792C23.3341 21.6716 21.6804 21.2489 19.9999 21.25C18.3196 21.2491 16.6663 21.672 15.1928 22.4796C13.7193 23.2871 12.4732 24.4532 11.5699 25.87M29.9982 31.1983L29.9999 31.25C29.9999 31.625 29.9799 31.995 29.9382 32.36C26.9138 34.0952 23.4867 35.0056 19.9999 35C16.3832 35 12.9882 34.04 10.0616 32.36C10.0187 31.9743 9.99812 31.5864 9.99989 31.1983M9.99989 31.1983C7.88928 31.3771 5.76641 31.1061 3.76823 30.4033C3.69215 29.4626 3.88388 28.5195 4.32127 27.6832C4.75866 26.8468 5.42384 26.1513 6.2399 25.6771C7.05595 25.203 7.98955 24.9694 8.93276 25.0036C9.87596 25.0377 10.7902 25.3381 11.5699 25.87M9.99989 31.1983C10.0059 29.3095 10.5526 27.4614 11.5699 25.87M24.9999 11.25C24.9999 12.5761 24.4731 13.8479 23.5354 14.7855C22.5977 15.7232 21.326 16.25 19.9999 16.25C18.6738 16.25 17.402 15.7232 16.4644 14.7855C15.5267 13.8479 14.9999 12.5761 14.9999 11.25C14.9999 9.92392 15.5267 8.65215 16.4644 7.71447C17.402 6.77678 18.6738 6.25 19.9999 6.25C21.326 6.25 22.5977 6.77678 23.5354 7.71447C24.4731 8.65215 24.9999 9.92392 24.9999 11.25ZM34.9999 16.25C34.9999 16.7425 34.9029 17.2301 34.7144 17.6851C34.526 18.14 34.2498 18.5534 33.9015 18.9016C33.5533 19.2499 33.1399 19.5261 32.685 19.7145C32.23 19.903 31.7423 20 31.2499 20C30.7574 20 30.2698 19.903 29.8148 19.7145C29.3599 19.5261 28.9465 19.2499 28.5982 18.9016C28.25 18.5534 27.9738 18.14 27.7853 17.6851C27.5969 17.2301 27.4999 16.7425 27.4999 16.25C27.4999 15.2554 27.895 14.3016 28.5982 13.5983C29.3015 12.8951 30.2553 12.5 31.2499 12.5C32.2445 12.5 33.1983 12.8951 33.9015 13.5983C34.6048 14.3016 34.9999 15.2554 34.9999 16.25ZM12.4999 16.25C12.4999 16.7425 12.4029 17.2301 12.2144 17.6851C12.026 18.14 11.7498 18.5534 11.4015 18.9016C11.0533 19.2499 10.6399 19.5261 10.185 19.7145C9.72999 19.903 9.24235 20 8.74989 20C8.25744 20 7.7698 19.903 7.31483 19.7145C6.85986 19.5261 6.44646 19.2499 6.09824 18.9016C5.75002 18.5534 5.4738 18.14 5.28535 17.6851C5.09689 17.2301 4.99989 16.7425 4.99989 16.25C4.99989 15.2554 5.39498 14.3016 6.09824 13.5983C6.8015 12.8951 7.75533 12.5 8.74989 12.5C9.74446 12.5 10.6983 12.8951 11.4015 13.5983C12.1048 14.3016 12.4999 15.2554 12.4999 16.25Z" stroke="#FF8AB2" stroke-width="2" stroke-linecap="round" stroke-linejoin="round"/>
</svg>
