<svg width="24" height="24" viewBox="0 0 24 24" fill="none" xmlns="http://www.w3.org/2000/svg">
<path d="M4.80005 17.9333H19.7334M5.94877 4.06665V17.9333M13.9898 4.06665V17.9333M18.5847 7.53332V17.9333M8.2462 6.95554H8.82056M8.2462 9.26665H8.82056M8.2462 11.5778H8.82056M11.118 6.95554H11.6924M11.118 9.26665H11.6924M11.118 11.5778H11.6924M8.2462 17.9333V15.3333C8.2462 14.8549 8.63217 14.4666 9.10774 14.4666H10.8308C11.3064 14.4666 11.6924 14.8549 11.6924 15.3333V17.9333M5.37441 4.06665H14.5642M13.9898 7.53332H19.159M16.2872 10.4222H16.2934V10.4284H16.2872V10.4222ZM16.2872 12.7333H16.2934V12.7395H16.2872V12.7333ZM16.2872 15.0444H16.2934V15.0506H16.2872V15.0444Z" stroke="#FF8AB2" stroke-width="2" stroke-linecap="round" stroke-linejoin="round"/>
</svg>
