<svg width="69" height="46" viewBox="0 0 69 46" fill="none" xmlns="http://www.w3.org/2000/svg">
<path d="M68.45 24.78V22.26L62.92 24.48C62.49 16.6 59.44 11.51 53.65 8.99997C51.88 5.89997 49.56 2.34997 47.66 1.03997L47.51 0.939973L47.43 0.899973C47.26 0.789973 47.09 0.689973 46.93 0.609973L46.83 0.549973L46.55 0.439973L46.46 0.559973L46.51 0.429973C46.29 0.349973 45.78 0.159973 45.11 0.159973C43.1 0.159973 41.22 1.35997 37.95 7.17997H30.94C27.99 2.38997 26.52 1.36997 26.04 1.03997L25.9 0.939973L25.83 0.899973C25.65 0.779973 25.47 0.679973 25.3 0.599973L25.2 0.539973L24.93 0.439973L24.84 0.559973L24.89 0.429973C24.67 0.349973 24.16 0.159973 23.49 0.159973C21.71 0.159973 19.63 0.849973 15.44 8.81997C9.29 11.28 6.09 16.53 5.71 24.78L0 22.48V25L5.7 27.26C5.71 28 5.75 28.72 5.81 29.42L0.01 31.71V34.26L6.12 31.8C7.75 41.22 14.09 45.84 25.42 45.84H43.25C54.62 45.84 60.97 41.19 62.57 31.69L68.45 34.06V31.51L62.86 29.31C62.92 28.56 62.96 27.78 62.97 26.98L68.45 24.81V24.78Z" fill="url(#paint0_linear_351_168)"/>
<path d="M17.5298 11.87C17.5298 11.87 21.6798 3.39996 23.5398 3.39996C25.3998 3.39996 29.9898 11.87 29.9898 11.87V13.73H17.5298V11.87Z" fill="#FCFEFD"/>
<path d="M20.6099 11.2399C21.3699 9.64994 22.3499 7.90994 23.0999 6.83994C23.2999 6.54994 23.7999 6.53994 24.0199 6.82994C24.8199 7.89994 25.8899 9.63994 26.7499 11.2399H20.6199H20.6099Z" fill="url(#paint1_linear_351_168)"/>
<path opacity="0.3" d="M23.0899 6.83993C22.3399 7.90993 21.3699 9.64993 20.5999 11.2399H22.0599C22.1899 9.89993 22.8999 6.61993 23.5599 6.61993C23.3799 6.61993 23.1899 6.68993 23.0899 6.83993Z" fill="#0097AB"/>
<path d="M23.8098 3.45995C26.1098 5.90995 29.0998 12.51 29.6198 13.72H29.9898V11.86C29.9898 11.86 25.8098 4.19995 23.8198 3.44995L23.8098 3.45995Z" fill="#E7E1EA"/>
<path d="M20.6099 11.24C21.3699 9.64996 22.3499 7.90996 23.0999 6.83996C23.2099 6.68996 23.3899 6.61996 23.5699 6.61996C23.5699 6.61996 22.9999 6.45996 22.0899 7.79996C20.9599 9.45996 19.8599 11.58 19.8599 11.58H20.9199L21.0999 11.25H20.6099V11.24Z" fill="#E7E1EA"/>
<path d="M39.1399 11.87C39.1399 11.87 43.2899 3.39996 45.1499 3.39996C47.0099 3.39996 51.5999 11.87 51.5999 11.87V13.73H39.1399V11.87Z" fill="#FCFEFD"/>
<path d="M42.22 11.2399C42.98 9.64994 43.96 7.90994 44.71 6.83994C44.91 6.54994 45.41 6.53994 45.63 6.82994C46.43 7.89994 47.5 9.63994 48.36 11.2399H42.23H42.22Z" fill="url(#paint2_linear_351_168)"/>
<path opacity="0.3" d="M44.7 6.83993C43.95 7.90993 42.98 9.64993 42.21 11.2399H43.67C43.8 9.89993 44.51 6.61993 45.17 6.61993C44.99 6.61993 44.8 6.68993 44.7 6.83993Z" fill="#0097AB"/>
<path d="M45.4199 3.45995C47.7199 5.90995 50.7099 12.51 51.2299 13.72H51.5999V11.86C51.5999 11.86 47.4199 4.19995 45.4299 3.44995L45.4199 3.45995Z" fill="#E7E1EA"/>
<path d="M42.22 11.24C42.98 9.64996 43.96 7.90996 44.71 6.83996C44.82 6.68996 45 6.61996 45.18 6.61996C45.18 6.61996 44.61 6.45996 43.7 7.79996C42.57 9.45996 41.47 11.58 41.47 11.58H42.53L42.71 11.25H42.22V11.24Z" fill="#E7E1EA"/>
<path d="M43.2399 42.68H25.4399C13.8799 42.68 8.8999 37.83 8.8999 26.55C8.8999 15.27 13.8799 10.42 25.4399 10.42H43.2399C54.7999 10.42 59.7799 15.27 59.7799 26.55C59.7799 37.83 54.7999 42.68 43.2399 42.68Z" fill="#FCFEFD"/>
<path d="M25.44 40.7C21.12 40.7 18.13 39.92 16.55 38.38C15.01 36.88 14.22 34.02 14.22 29.9C14.22 25.78 15 22.93 16.55 21.42C18.13 19.88 21.12 19.1 25.44 19.1H43.24C47.56 19.1 50.55 19.88 52.13 21.42C53.67 22.92 54.46 25.78 54.46 29.9C54.46 34.02 53.68 36.87 52.13 38.38C50.55 39.92 47.56 40.7 43.24 40.7H25.44Z" fill="#E7E1EA"/>
<path opacity="0.03" d="M25.4398 40.11C21.2798 40.11 18.4298 39.39 16.9698 37.96C15.5498 36.57 14.8198 33.86 14.8198 29.91C14.8198 25.96 15.5398 23.24 16.9698 21.86C18.4398 20.43 21.2898 19.71 25.4398 19.71H43.2398C47.3998 19.71 50.2498 20.43 51.7098 21.86C53.1298 23.25 53.8598 25.96 53.8598 29.91C53.8598 33.86 53.1398 36.58 51.7098 37.96C50.2398 39.39 47.3898 40.11 43.2398 40.11H25.4398Z" fill="#131847"/>
<path d="M43.2799 10.42H40.76C51.48 10.42 56.9799 14.92 56.9799 25.37C56.9799 35.82 52.37 40.32 41.65 40.32H24.27C13.76 40.32 9.11995 35.99 8.94995 25.96C8.94995 26.16 8.94995 26.35 8.94995 26.55C8.94995 37.83 13.9299 42.68 25.49 42.68H43.29C54.85 42.68 59.83 37.83 59.83 26.55C59.83 15.27 54.85 10.42 43.29 10.42H43.2799Z" fill="#E7E1EA"/>
<path d="M43.5673 26.9012L43.5508 27.731L44.3806 27.7475L44.3971 26.9177L43.5673 26.9012Z" fill="#131847"/>
<path d="M44.386 26.9167L44.3696 27.7465L45.1995 27.7629L45.2158 26.9331L44.386 26.9167Z" fill="#131847"/>
<path d="M44.3627 28.5745L44.3462 29.4044L45.176 29.4209L45.1925 28.591L44.3627 28.5745Z" fill="#131847"/>
<path d="M43.5286 28.5489L43.5122 29.3787L44.342 29.3951L44.3584 28.5653L43.5286 28.5489Z" fill="#131847"/>
<path d="M42.7129 27.7021L42.6965 28.532L43.5264 28.5484L43.5427 27.7185L42.7129 27.7021Z" fill="#131847"/>
<path d="M45.2329 26.0909L45.2166 26.9207L46.0464 26.9371L46.0628 26.1072L45.2329 26.0909Z" fill="#131847"/>
<path d="M45.1609 29.4161L45.1445 30.246L45.9744 30.2623L45.9907 29.4325L45.1609 29.4161Z" fill="#131847"/>
<path d="M46.0673 26.1162L46.0508 26.946L46.8806 26.9625L46.8971 26.1327L46.0673 26.1162Z" fill="#131847"/>
<path d="M45.9973 29.4267L45.981 30.2565L46.8108 30.2729L46.8272 29.4431L45.9973 29.4267Z" fill="#131847"/>
<path d="M41.8865 27.6916L41.8701 28.5214L42.7 28.5378L42.7163 27.708L41.8865 27.6916Z" fill="#131847"/>
<path d="M34.1231 29.149L34.1067 29.9789L34.9365 29.9953L34.9529 29.1654L34.1231 29.149Z" fill="#131847"/>
<path d="M34.9492 29.1794L34.9329 30.0093L35.7627 30.0256L35.7791 29.1958L34.9492 29.1794Z" fill="#131847"/>
<path d="M33.2926 29.1437L33.2761 29.9735L34.106 29.99L34.1225 29.1602L33.2926 29.1437Z" fill="#131847"/>
<path d="M34.1086 29.9907L34.092 30.8206L34.9219 30.8371L34.9384 30.0072L34.1086 29.9907Z" fill="#131847"/>
<path d="M34.0921 30.8218L34.0757 31.6516L34.9055 31.668L34.9219 30.8381L34.0921 30.8218Z" fill="#131847"/>
<path d="M34.8977 31.6685L34.8813 32.4984L35.7112 32.5147L35.7276 31.6849L34.8977 31.6685Z" fill="#131847"/>
<path d="M33.2511 31.6332L33.2346 32.463L34.0645 32.4795L34.081 31.6497L33.2511 31.6332Z" fill="#131847"/>
<path d="M32.404 32.4492L32.3875 33.279L33.2173 33.2955L33.2338 32.4657L32.404 32.4492Z" fill="#131847"/>
<path d="M35.7201 32.5012L35.7036 33.3311L36.5335 33.3476L36.55 32.5177L35.7201 32.5012Z" fill="#131847"/>
<path d="M36.5465 32.5215L36.53 33.3514L37.3599 33.3679L37.3764 32.5381L36.5465 32.5215Z" fill="#131847"/>
<path d="M31.5675 32.4286L31.551 33.2584L32.3809 33.2749L32.3974 32.4451L31.5675 32.4286Z" fill="#131847"/>
<path d="M34.1336 28.3327L34.1172 29.1625L34.947 29.1789L34.9634 28.3491L34.1336 28.3327Z" fill="#131847"/>
<path d="M34.976 28.3483L34.9595 29.1781L35.7893 29.1946L35.8058 28.3648L34.976 28.3483Z" fill="#131847"/>
<path d="M33.3071 28.3121L33.2908 29.142L34.1206 29.1583L34.137 28.3285L33.3071 28.3121Z" fill="#131847"/>
<path d="M34.0465 33.3066L34.03 34.1364L34.8599 34.1529L34.8764 33.3231L34.0465 33.3066Z" fill="#131847"/>
<path d="M34.867 33.3212L34.8506 34.1511L35.6804 34.1674L35.6968 33.3376L34.867 33.3212Z" fill="#131847"/>
<path d="M33.2199 33.2962L33.2034 34.126L34.0332 34.1426L34.0497 33.3127L33.2199 33.2962Z" fill="#131847"/>
<path d="M34.051 32.4743L34.0347 33.3041L34.8645 33.3205L34.8809 32.4907L34.051 32.4743Z" fill="#131847"/>
<path d="M34.8875 32.4849L34.8711 33.3147L35.7009 33.3311L35.7173 32.5012L34.8875 32.4849Z" fill="#131847"/>
<path d="M33.2346 32.454L33.2183 33.2838L34.0481 33.3002L34.0645 32.4703L33.2346 32.454Z" fill="#131847"/>
<path d="M34.0203 34.1271L34.0039 34.9569L34.8337 34.9733L34.8501 34.1434L34.0203 34.1271Z" fill="#131847"/>
<path d="M34.8627 34.1437L34.8462 34.9735L35.676 34.99L35.6925 34.1602L34.8627 34.1437Z" fill="#131847"/>
<path d="M33.1939 34.1065L33.1775 34.9363L34.0073 34.9527L34.0237 34.1229L33.1939 34.1065Z" fill="#131847"/>
<path d="M34.0675 31.6436L34.051 32.4734L34.8809 32.4899L34.8974 31.6601L34.0675 31.6436Z" fill="#131847"/>
<path d="M37.387 31.71L37.3706 32.5399L38.2004 32.5562L38.2168 31.7264L37.387 31.71Z" fill="#131847"/>
<path d="M30.7616 31.5817L30.7451 32.4116L31.575 32.4281L31.5915 31.5982L30.7616 31.5817Z" fill="#131847"/>
<path d="M25.0476 26.8967L24.2178 26.9132L24.2343 27.743L25.0641 27.7265L25.0476 26.8967Z" fill="#131847"/>
<path d="M24.2134 26.9175L23.3835 26.9339L23.3999 27.7637L24.2298 27.7474L24.2134 26.9175Z" fill="#131847"/>
<path d="M24.251 28.5721L23.4211 28.5886L23.4377 29.4185L24.2675 29.4019L24.251 28.5721Z" fill="#131847"/>
<path d="M25.0754 28.55L24.2456 28.5664L24.262 29.3962L25.0918 29.3799L25.0754 28.55Z" fill="#131847"/>
<path d="M25.8887 27.7142L25.0588 27.7306L25.0752 28.5604L25.905 28.5441L25.8887 27.7142Z" fill="#131847"/>
<path d="M23.3674 26.1042L22.5376 26.1206L22.554 26.9504L23.3838 26.9341L23.3674 26.1042Z" fill="#131847"/>
<path d="M23.4426 29.4122L22.6128 29.4286L22.6292 30.2584L23.459 30.2421L23.4426 29.4122Z" fill="#131847"/>
<path d="M22.5425 26.1166L21.7126 26.1331L21.7292 26.963L22.559 26.9464L22.5425 26.1166Z" fill="#131847"/>
<path d="M22.6133 29.4286L21.7834 29.4449L21.7998 30.2748L22.6297 30.2584L22.6133 29.4286Z" fill="#131847"/>
<path d="M26.7183 27.6979L25.8884 27.7142L25.9048 28.5441L26.7346 28.5277L26.7183 27.6979Z" fill="#131847"/>
<path opacity="0.2" d="M25.2401 40.05C21.0801 40.05 18.2301 39.33 16.7701 37.9C15.3501 36.51 14.6201 33.8 14.6201 29.85C14.6201 25.9 15.3401 23.18 16.7701 21.8C18.2401 20.37 21.0901 19.65 25.2401 19.65H43.0401C47.2001 19.65 50.0501 20.37 51.5101 21.8C52.9301 23.19 53.6601 25.9 53.6601 29.85C53.6601 33.8 52.9401 36.52 51.5101 37.9C50.0401 39.33 47.1901 40.05 43.0401 40.05H25.2401Z" fill="#34347A"/>
<mask id="mask0_351_168" style="mask-type:luminance" maskUnits="userSpaceOnUse" x="14" y="19" width="40" height="22">
<path d="M25.2401 40.05C21.0801 40.05 18.2301 39.33 16.7701 37.9C15.3501 36.51 14.6201 33.8 14.6201 29.85C14.6201 25.9 15.3401 23.18 16.7701 21.8C18.2401 20.37 21.0901 19.65 25.2401 19.65H43.0401C47.2001 19.65 50.0501 20.37 51.5101 21.8C52.9301 23.19 53.6601 25.9 53.6601 29.85C53.6601 33.8 52.9401 36.52 51.5101 37.9C50.0401 39.33 47.1901 40.05 43.0401 40.05H25.2401Z" fill="white"/>
</mask>
<g mask="url(#mask0_351_168)">
<path opacity="0.25" d="M53.9725 21.1839L44.8037 8.18152L7.55366 34.4488L16.7224 47.4512L53.9725 21.1839Z" fill="url(#paint3_linear_351_168)"/>
</g>
<defs>
<linearGradient id="paint0_linear_351_168" x1="0.02" y1="22.98" x2="68.45" y2="22.98" gradientUnits="userSpaceOnUse">
<stop stop-color="#FFAA67"/>
<stop offset="0.21" stop-color="#FF7E7A"/>
<stop offset="0.46" stop-color="#FF518C"/>
<stop offset="1" stop-color="#5E309C"/>
</linearGradient>
<linearGradient id="paint1_linear_351_168" x1="20.6099" y1="8.92994" x2="28.2499" y2="8.92994" gradientUnits="userSpaceOnUse">
<stop stop-color="#FFAA67"/>
<stop offset="0.5" stop-color="#FF7E7A"/>
<stop offset="0.83" stop-color="#FF518C"/>
<stop offset="1" stop-color="#5E309C"/>
</linearGradient>
<linearGradient id="paint2_linear_351_168" x1="28.88" y1="9.19994" x2="59.81" y2="8.72994" gradientUnits="userSpaceOnUse">
<stop stop-color="#FFAA67"/>
<stop offset="0.5" stop-color="#FF7E7A"/>
<stop offset="0.67" stop-color="#FF518C"/>
<stop offset="1" stop-color="#5E309C"/>
</linearGradient>
<linearGradient id="paint3_linear_351_168" x1="54.2396" y1="-0.858349" x2="27.4791" y2="64.0776" gradientUnits="userSpaceOnUse">
<stop offset="0.15" stop-color="white" stop-opacity="0"/>
<stop offset="0.28" stop-color="white" stop-opacity="0.25"/>
<stop offset="0.52" stop-color="white" stop-opacity="0.65"/>
<stop offset="0.69" stop-color="white" stop-opacity="0.9"/>
<stop offset="0.77" stop-color="white"/>
</linearGradient>
</defs>
</svg>
