<svg width="40" height="40" viewBox="0 0 40 40" fill="none" xmlns="http://www.w3.org/2000/svg">
<path d="M11.25 12.5L16.25 16.25L11.25 20M18.75 20H23.75M8.75 33.75H31.25C32.2446 33.75 33.1984 33.3549 33.9016 32.6516C34.6049 31.9484 35 30.9946 35 30V10C35 9.00544 34.6049 8.05161 33.9016 7.34835C33.1984 6.64509 32.2446 6.25 31.25 6.25H8.75C7.75544 6.25 6.80161 6.64509 6.09835 7.34835C5.39509 8.05161 5 9.00544 5 10V30C5 30.9946 5.39509 31.9484 6.09835 32.6516C6.80161 33.3549 7.75544 33.75 8.75 33.75Z" stroke="#FF8AB2" stroke-width="2" stroke-linecap="round" stroke-linejoin="round"/>
</svg>
